<svg width="16" height="12" viewBox="0 0 16 12" fill="none" xmlns="http://www.w3.org/2000/svg">
<path d="M5.71717 9.15L14.1922 0.675C14.3922 0.475 14.6255 0.375 14.8922 0.375C15.1588 0.375 15.3922 0.475 15.5922 0.675C15.7922 0.875 15.8922 1.11267 15.8922 1.388C15.8922 1.66333 15.7922 1.90067 15.5922 2.1L6.41717 11.3C6.21717 11.5 5.98384 11.6 5.71717 11.6C5.45051 11.6 5.21717 11.5 5.01717 11.3L0.717173 7C0.517173 6.8 0.421172 6.56267 0.429172 6.288C0.437172 6.01333 0.541506 5.77567 0.742172 5.575C0.942839 5.37433 1.18051 5.27433 1.45517 5.275C1.72984 5.27567 1.96717 5.37567 2.16717 5.575L5.71717 9.15Z" fill="white"/>
</svg>
