<svg width="16" height="16" viewBox="0 0 16 16" fill="none" xmlns="http://www.w3.org/2000/svg">
<path d="M8.2002 1.2002C4.34046 1.2002 1.2002 4.34046 1.2002 8.2002C1.2002 12.0599 4.34046 15.2002 8.2002 15.2002C12.0599 15.2002 15.2002 12.0599 15.2002 8.2002C15.2002 4.34046 12.0599 1.2002 8.2002 1.2002ZM8.2002 14.3252C4.82281 14.3252 2.0752 11.5776 2.0752 8.2002C2.0752 4.82281 4.82281 2.0752 8.2002 2.0752C11.5776 2.0752 14.3252 4.82281 14.3252 8.2002C14.3252 11.5776 11.5776 14.3252 8.2002 14.3252Z" fill="white" fill-opacity="0.75"/>
<path d="M15.2002 8.2002C15.2002 4.46098 12.253 1.39667 8.55957 1.20898L8.2002 1.2002C4.34046 1.2002 1.2002 4.34046 1.2002 8.2002L1.20898 8.55957C1.39062 12.1339 4.26645 15.0098 7.84082 15.1914L8.2002 15.2002C11.9394 15.2002 15.0037 12.253 15.1914 8.55957L15.2002 8.2002ZM14.125 8.2002C14.125 4.93327 11.4671 2.27539 8.2002 2.27539C4.93327 2.27539 2.27539 4.93327 2.27539 8.2002C2.27539 11.4671 4.93327 14.125 8.2002 14.125V14.3252L7.88574 14.3174C4.75807 14.1585 2.24193 11.6423 2.08301 8.51465L2.0752 8.2002C2.0752 4.82281 4.82281 2.0752 8.2002 2.0752L8.51465 2.08301C11.7465 2.24723 14.3252 4.92826 14.3252 8.2002L14.3174 8.51465C14.1532 11.7465 11.4721 14.3252 8.2002 14.3252V14.125C11.4671 14.125 14.125 11.4671 14.125 8.2002ZM15.4004 8.2002C15.4004 12.1704 12.1704 15.4004 8.2002 15.4004C4.23001 15.4004 1 12.1704 1 8.2002C1 4.23001 4.23001 1 8.2002 1C12.1704 1 15.4004 4.23001 15.4004 8.2002Z" fill="white" fill-opacity="0.75"/>
<path d="M8.97871 4.2002H8.2002V8.56353L10.6498 11.2002L11.2002 10.6077L8.97871 8.21656V4.2002Z" fill="white" fill-opacity="0.75"/>
<path d="M8.2002 4.2002V8.56353L10.6498 11.2002L11.2002 10.6077L8.97871 8.21656V4.2002H8.2002ZM9.17871 8.1377L11.3467 10.4717L11.4736 10.6074L11.3467 10.7441L10.7959 11.3359L10.6494 11.4941L10.5029 11.3359L8.05371 8.69922L8 8.64258V4H9.17871V8.1377Z" fill="white" fill-opacity="0.75"/>
</svg>
