<svg width="16" height="16" viewBox="0 0 16 16" fill="none" xmlns="http://www.w3.org/2000/svg">
<path d="M8.00004 11.3333C8.18893 11.3333 8.34737 11.2693 8.47538 11.1413C8.60337 11.0133 8.66715 10.8551 8.66671 10.6667V8C8.66671 7.81111 8.60271 7.65289 8.47471 7.52534C8.34671 7.39778 8.18849 7.33378 8.00004 7.33334C7.8116 7.33289 7.65338 7.39689 7.52537 7.52534C7.39738 7.65378 7.33337 7.812 7.33337 8V10.6667C7.33337 10.8556 7.39738 11.014 7.52537 11.142C7.65338 11.27 7.8116 11.3338 8.00004 11.3333ZM8.00004 6C8.18893 6 8.34737 5.936 8.47538 5.808C8.60337 5.68 8.66715 5.52178 8.66671 5.33334C8.66626 5.14489 8.60226 4.98667 8.47471 4.85867C8.34715 4.73067 8.18893 4.66667 8.00004 4.66667C7.81115 4.66667 7.65293 4.73067 7.52537 4.85867C7.39782 4.98667 7.33382 5.14489 7.33337 5.33334C7.33293 5.52178 7.39693 5.68022 7.52537 5.80867C7.65382 5.93711 7.81204 6.00089 8.00004 6ZM8.00004 14.6667C7.07782 14.6667 6.21115 14.4916 5.40004 14.1413C4.58893 13.7911 3.88337 13.3162 3.28338 12.7167C2.68338 12.1171 2.20849 11.4116 1.85871 10.6C1.50893 9.78845 1.33382 8.92178 1.33337 8C1.33293 7.07822 1.50804 6.21156 1.85871 5.4C2.20937 4.58845 2.68426 3.88289 3.28338 3.28334C3.88249 2.68378 4.58804 2.20889 5.40004 1.85867C6.21204 1.50845 7.07871 1.33334 8.00004 1.33334C8.92137 1.33334 9.78804 1.50845 10.6 1.85867C11.412 2.20889 12.1176 2.68378 12.7167 3.28334C13.3158 3.88289 13.7909 4.58845 14.142 5.4C14.4932 6.21156 14.668 7.07822 14.6667 8C14.6654 8.92178 14.4903 9.78845 14.1414 10.6C13.7925 11.4116 13.3176 12.1171 12.7167 12.7167C12.1158 13.3162 11.4103 13.7913 10.6 14.142C9.78982 14.4927 8.92315 14.6676 8.00004 14.6667ZM8.00004 13.3333C9.48893 13.3333 10.75 12.8167 11.7834 11.7833C12.8167 10.75 13.3334 9.48889 13.3334 8C13.3334 6.51111 12.8167 5.25 11.7834 4.21667C10.75 3.18334 9.48893 2.66667 8.00004 2.66667C6.51115 2.66667 5.25004 3.18334 4.21671 4.21667C3.18337 5.25 2.66671 6.51111 2.66671 8C2.66671 9.48889 3.18337 10.75 4.21671 11.7833C5.25004 12.8167 6.51115 13.3333 8.00004 13.3333Z" fill="#C64D34"/>
</svg>
